<?xml version="1.0" encoding="UTF-8"?>
<svg version="1.1" xmlns="http://www.w3.org/2000/svg" width="1472" height="454">
<path d="M0 0 C25.74 0 51.48 0 78 0 C78 50.16 78 100.32 78 152 C104.4 152 130.8 152 158 152 C157.92140221 134.14202605 157.92140221 134.14202605 157.81982422 116.28417969 C157.70498902 86.09386188 158.92358403 53.24256545 181 30 C182.23169922 28.63488281 182.23169922 28.63488281 183.48828125 27.2421875 C201.07164557 8.56463408 225.8147468 0.65217761 250.93359375 -0.12109375 C259.01813328 -0.27771884 267.01447697 0.02341556 275.0625 0.8125 C275.82296631 0.88251221 276.58343262 0.95252441 277.36694336 1.0246582 C283.11856743 1.65603381 287.27591444 3.09197148 293 5 C293 26.45 293 47.9 293 70 C287.06 69.34 281.12 68.68 275 68 C263.67179236 68 253.66336974 69.11775376 245 77 C237.79481606 85.68860417 237.68375918 94.9611407 237.5859375 105.80859375 C237.55947144 107.56725769 237.55947144 107.56725769 237.5324707 109.3614502 C237.4696443 113.71999673 237.42329176 118.07876819 237.375 122.4375 C237.25125 132.193125 237.1275 141.94875 237 152 C263.4 152 289.8 152 317 152 C316.88187348 131.08996711 316.88187348 131.08996711 316.72973633 110.18017578 C316.58285813 80.06665417 320.0247801 51.27270849 341 28 C341.56332031 27.36707031 342.12664062 26.73414062 342.70703125 26.08203125 C359.82925543 7.91723605 385.31351731 0.58760521 409.58203125 -0.25390625 C424.24168761 -0.51789484 438.01076108 0.33692036 452 5 C452 26.45 452 47.9 452 70 C446.72 69.34 441.44 68.68 436 68 C425.48614643 67.47430732 414.71674112 68.20635994 405.75390625 74.34375 C400.59050281 79.21965882 397.23679099 85.75744711 396.84178162 92.83477783 C396.81846519 94.47358917 396.81846519 94.47358917 396.79467773 96.14550781 C396.77473251 97.38649231 396.75478729 98.62747681 396.73423767 99.90606689 C396.71725607 101.255085 396.70037717 102.60410441 396.68359375 103.953125 C396.66301124 105.33746951 396.64201443 106.72180792 396.62062073 108.10614014 C396.56553393 111.742544 396.51606586 115.37900333 396.46777344 119.01550293 C396.41746036 122.72913516 396.36187688 126.44268827 396.30664062 130.15625 C396.19872591 137.43743906 396.09959905 144.7186734 396 152 C414.15 152 432.3 152 451 152 C451 179.72 451 207.44 451 236 C432.85 236 414.7 236 396 236 C396 307.28 396 378.56 396 452 C369.93 452 343.86 452 317 452 C316.9906543 446.21106201 316.98130859 440.42212402 316.97167969 434.45776367 C316.93791242 415.33101372 316.88256538 396.20437119 316.81609726 377.07770824 C316.77632456 365.48124656 316.74392304 353.88485257 316.72900391 342.28833008 C316.71597827 332.17825365 316.68899017 322.06832627 316.64538693 311.95833379 C316.62279281 306.60745985 316.6070881 301.25676961 316.60811615 295.90584373 C316.60886396 290.86361325 316.59086432 285.82178854 316.55883217 280.77966309 C316.55035259 278.93469914 316.54856997 277.08968958 316.55419731 275.24471474 C316.58990601 261.73149796 315.38068602 249.60172573 306 239 C296.45392362 230.53600992 286.76695689 226.7597185 274 227 C262.27907526 228.53010805 253.21222035 233.65005938 245.6875 242.70703125 C239.78213992 250.73121265 237.69493895 259.32032268 237.7215271 269.21313477 C237.7128385 270.39332561 237.7128385 270.39332561 237.70397437 271.5973587 C237.68708061 274.21208376 237.6841071 276.82663119 237.68115234 279.44140625 C237.67184682 281.32434008 237.66167723 283.20726981 237.65071106 285.0901947 C237.62346738 290.18665718 237.60827834 295.2830921 237.59528303 300.37960815 C237.57962784 305.71143749 237.55284523 311.04321077 237.5272522 316.375 C237.4805067 326.46472153 237.44374211 336.55445366 237.41057932 346.64422798 C237.37232806 358.1339515 237.32292576 369.62361864 237.27259517 381.1132946 C237.16933818 404.74215992 237.08152943 428.37104903 237 452 C210.93 452 184.86 452 158 452 C157.9906543 446.21106201 157.98130859 440.42212402 157.97167969 434.45776367 C157.93791242 415.33101372 157.88256538 396.20437119 157.81609726 377.07770824 C157.77632456 365.48124656 157.74392304 353.88485257 157.72900391 342.28833008 C157.71597827 332.17825365 157.68899017 322.06832627 157.64538693 311.95833379 C157.62279281 306.60745985 157.6070881 301.25676961 157.60811615 295.90584373 C157.60886396 290.86361325 157.59086432 285.82178854 157.55883217 280.77966309 C157.55035259 278.93469914 157.54856997 277.08968958 157.55419731 275.24471474 C157.59074075 261.4156078 156.44195174 250.01440957 146.5625 239.375 C138.18127808 231.60703822 129.66364196 227.10313859 118.046875 226.96484375 C106.9186637 227.54978819 96.04553999 231.6313131 88.24609375 239.84765625 C81.74585857 248.04218832 78.85548285 256.45197215 78.84178162 266.80804443 C78.83684364 267.59958774 78.83190566 268.39113104 78.82681805 269.20666051 C78.81144875 271.86140438 78.80308395 274.51612407 78.79467773 277.17089844 C78.78509877 279.07294426 78.77508867 280.97498796 78.76467896 282.87702942 C78.73762587 288.04396953 78.71661846 293.21091879 78.69667697 298.37789059 C78.67481994 303.77645982 78.64742986 309.17500086 78.62062073 314.57354736 C78.57069004 324.7979885 78.52575259 335.02244527 78.48259836 345.24691701 C78.43322922 356.88646835 78.37830989 368.52599142 78.32291877 380.16551542 C78.20909293 404.11031855 78.1029879 428.05514764 78 452 C52.26 452 26.52 452 0 452 C0 302.84 0 153.68 0 0 Z " fill="#BC1429" transform="translate(0,0)"/>
<path d="M0 0 C11.22 0 22.44 0 34 0 C34 19.47 34 38.94 34 59 C53.47 59 72.94 59 93 59 C93 39.53 93 20.06 93 0 C104.55 0 116.1 0 128 0 C128 49.83 128 99.66 128 151 C116.45 151 104.9 151 93 151 C93 131.2 93 111.4 93 91 C73.53 91 54.06 91 34 91 C34 110.8 34 130.6 34 151 C22.78 151 11.56 151 0 151 C0 101.17 0 51.34 0 0 Z " fill="#000000" transform="translate(530,152)"/>
<path d="M0 0 C0.83144531 0.32871094 1.66289063 0.65742188 2.51953125 0.99609375 C12.99386615 5.6459905 21.30154923 13.52790439 26 24 C30.78920357 36.55048524 31.65805399 48.73556806 30 62 C5.91 62 -18.18 62 -43 62 C-39.51074662 71.30467569 -36.45657071 74.69483673 -28 79 C-21.93490496 81.34777872 -15.06725002 80.2702811 -9.11328125 78.12109375 C-4.45401597 75.64935782 -1.85517805 71.28276708 1 67 C5.64051467 68.14702809 10.27842934 69.30363908 14.91308594 70.47412109 C16.76657359 70.94117917 18.62147095 71.40263492 20.4765625 71.86328125 C21.45367188 72.11464844 22.43078125 72.36601562 23.4375 72.625 C24.30246094 72.84414063 25.16742187 73.06328125 26.05859375 73.2890625 C28 74 28 74 29 76 C26.05219095 88.06976934 17.40836546 96.82426243 7.140625 103.14453125 C-6.09886129 110.44813216 -22.97957911 111.15204889 -37.4375 107.4375 C-51.29233715 102.81922095 -62.50642493 94.57191123 -69.71875 81.75 C-77.05561754 66.00257698 -78.19764942 48.56635964 -73 32 C-67.62558464 18.1444861 -59.37440778 7.95054971 -45.83203125 1.48828125 C-31.91907225 -4.4259973 -14.25046879 -5.97600304 0 0 Z M-40.0625 31.5 C-42.04354216 34.48918818 -42.23397783 36.16988914 -43 40 C-29.47 40 -15.94 40 -2 40 C-2.89404655 33.74167418 -3.33525808 30.86316336 -8 27 C-18.52317226 20.29588829 -32.14200215 21.09865655 -40.0625 31.5 Z " fill="#000000" transform="translate(958,197)"/>
<path d="M0 0 C10.67150244 8.2981603 16.15928112 20.24207195 18.57421875 33.32421875 C19.40963133 40.53635852 20.31828693 49.0451392 18 56 C-6.09 56 -30.18 56 -55 56 C-49.584752 67.20212662 -49.584752 67.20212662 -39.625 72.8125 C-32.35397594 74.94387221 -25.74698792 74.63410723 -19 71 C-15.50224413 68.04633949 -13.17853862 65.01309745 -11 61 C-4.53866511 62.12816958 1.75303463 63.66211504 8.0625 65.4375 C8.8248999 65.64270264 9.5872998 65.84790527 10.37280273 66.05932617 C12.27909806 66.60967021 14.14521004 67.29530528 16 68 C17.17065931 71.51197793 16.54964897 72.60380381 15.0065918 75.8359375 C14.53926636 76.75246094 14.53926636 76.75246094 14.0625 77.6875 C13.7425708 78.31527344 13.4226416 78.94304687 13.09301758 79.58984375 C7.12022761 90.80276145 -2.78583583 97.67492922 -14.796875 101.45703125 C-30.85038921 105.41348245 -47.54536296 103.53566964 -62.11328125 95.78515625 C-75.30088114 87.62990165 -82.28948121 75.77593262 -86.53051758 61.17333984 C-89.1915688 48.85473453 -88.22636101 33.46532947 -83 22 C-82.5875 21.05382812 -82.175 20.10765625 -81.75 19.1328125 C-75.58701187 6.49168344 -65.18297087 -1.48855721 -52.53125 -7.09375 C-35.7745668 -12.82071768 -14.45910754 -9.87133056 0 0 Z M-51.87109375 26.0234375 C-53.44042683 28.50611641 -53.44042683 28.50611641 -54 34 C-40.47 34 -26.94 34 -13 34 C-16.04002132 24.45349985 -16.04002132 24.45349985 -23 19 C-33.90920072 13.66661298 -44.32704279 17.34880669 -51.87109375 26.0234375 Z " fill="#000000" transform="translate(766,203)"/>
<path d="M0 0 C1.00095703 -0.0100708 2.00191406 -0.0201416 3.03320312 -0.03051758 C15.85134433 0.11782106 27.55118199 3.6880769 37.0546875 12.46484375 C47.14457652 23.39916554 47.33280848 37.89405884 47.38671875 51.91796875 C47.40359656 53.58377885 47.42175088 55.24957646 47.44111633 56.9153595 C47.48828621 61.26352023 47.51830779 65.6116303 47.54455566 69.95996094 C47.57452933 74.41156009 47.62100118 78.86298515 47.66601562 83.31445312 C47.75167247 92.02206354 47.81765528 100.72965707 47.875 109.4375 C37.975 109.4375 28.075 109.4375 17.875 109.4375 C16.885 105.4775 16.885 105.4775 15.875 101.4375 C15.318125 101.90800781 14.76125 102.37851562 14.1875 102.86328125 C3.86177964 111.28781323 -5.90591771 113.40012035 -19.125 112.4375 C-30.13580185 110.30362367 -38.66941725 105.76223065 -45.125 96.4375 C-49.84518368 88.08045348 -50.77949295 78.7937918 -48.359375 69.49609375 C-45.77424369 62.61266872 -42.25732311 57.80770047 -36 53.8125 C-35.13117188 53.24273437 -34.26234375 52.67296875 -33.3671875 52.0859375 C-23.80634992 47.22488514 -13.09870938 46.15688777 -2.61938477 44.55981445 C-0.6216252 44.25292327 1.37476179 43.93713836 3.37109375 43.62109375 C4.54857178 43.44118896 5.7260498 43.26128418 6.93920898 43.07592773 C10.04556487 42.58756261 10.04556487 42.58756261 12.875 40.4375 C13.54258785 37.06501384 13.54258785 37.06501384 12.875 33.4375 C9.7683685 29.57520138 7.43703831 27.7272297 2.45703125 27.1640625 C-3.36086861 26.95071215 -7.64313517 27.30087221 -12.46484375 30.7265625 C-15.4228225 33.7750206 -16.80616779 37.4549738 -18.125 41.4375 C-27.99175685 40.79049955 -37.4928065 38.56370288 -47.125 36.4375 C-46.38848713 26.12347618 -42.71023159 17.99149356 -34.953125 10.92578125 C-24.34389302 2.28877829 -13.40952188 0.08746235 0 0 Z M3.8125 64.6875 C2.56049805 64.85185547 2.56049805 64.85185547 1.28320312 65.01953125 C-4.32681191 65.85032069 -9.40594207 67.16585084 -14.125 70.4375 C-16.59172109 74.13758163 -16.795778 77.14452078 -16.125 81.4375 C-14.25715093 84.74215605 -12.80476536 86.08971307 -9.4375 87.8125 C-3.67583475 88.89960665 0.98249499 88.43731397 6.1875 85.6875 C9.82660362 82.64080859 12.36371884 79.97134348 13.875 75.4375 C13.943991 73.37604893 13.95967727 71.31248599 13.9375 69.25 C13.92847656 68.16332031 13.91945313 67.07664062 13.91015625 65.95703125 C13.89855469 65.12558594 13.88695312 64.29414063 13.875 63.4375 C10.52990801 63.4375 7.11513481 64.20828448 3.8125 64.6875 Z " fill="#000000" transform="translate(1260.125,193.5625)"/>
<path d="M0 0 C8.43239645 6.78994172 13.1980394 14.90764374 14.9453125 25.56640625 C15.0324931 28.12154668 15.07191924 30.64806737 15.05883789 33.20239258 C15.05898392 33.95414764 15.05912994 34.70590271 15.0592804 35.48043823 C15.05858645 37.95313451 15.0508184 40.42575446 15.04296875 42.8984375 C15.04110273 44.61764993 15.03967969 46.3368629 15.03868103 48.05607605 C15.03487036 52.57206704 15.02505247 57.08802567 15.01397705 61.60400391 C15.00373174 66.21581586 14.99917673 70.82763306 14.99414062 75.43945312 C14.98342888 84.48178731 14.96584384 93.52408902 14.9453125 102.56640625 C4.0553125 102.56640625 -6.8346875 102.56640625 -18.0546875 102.56640625 C-18.08046875 97.89484375 -18.10625 93.22328125 -18.1328125 88.41015625 C-18.1579991 85.43874831 -18.18434567 82.46744035 -18.21484375 79.49609375 C-18.26307079 74.78678089 -18.30715564 70.07769963 -18.32568359 65.36816406 C-18.34090279 61.5682947 -18.37543987 57.769034 -18.42299652 53.96943665 C-18.43775647 52.52473766 -18.44572541 51.07995175 -18.44657135 49.63517761 C-18.45583587 41.74152304 -18.57964922 35.32581726 -23.0546875 28.56640625 C-27.02620448 25.04877693 -31.87671684 24.42832703 -37.0546875 24.56640625 C-41.27290613 25.39816767 -44.22567193 26.82465547 -47.4296875 29.69140625 C-51.92188279 37.63913638 -51.38926078 46.92677723 -51.46875 55.7890625 C-51.48749718 57.14384595 -51.50707313 58.49861816 -51.5274353 59.8533783 C-51.57838826 63.38940755 -51.61820891 66.92547452 -51.65557861 70.46166992 C-51.69585164 74.08196012 -51.74673461 77.70210086 -51.796875 81.32226562 C-51.89418488 88.40358655 -51.97399752 95.48479865 -52.0546875 102.56640625 C-62.9446875 102.56640625 -73.8346875 102.56640625 -85.0546875 102.56640625 C-85.0546875 67.58640625 -85.0546875 32.60640625 -85.0546875 -3.43359375 C-74.4946875 -3.43359375 -63.9346875 -3.43359375 -53.0546875 -3.43359375 C-52.5596875 1.02140625 -52.5596875 1.02140625 -52.0546875 5.56640625 C-51.58160156 5.1075 -51.10851563 4.64859375 -50.62109375 4.17578125 C-36.80591772 -8.64297857 -15.92062026 -10.79637204 0 0 Z " fill="#000000" transform="translate(1093.0546875,200.43359375)"/>
<path d="M0 0 C7.29885411 5.34714587 11.56534718 12.61278908 14.0625 21.25 C14.0625 22.57 14.0625 23.89 14.0625 25.25 C9.9592776 26.08802913 5.85477638 26.91961878 1.75 27.75 C0.58275391 27.98847656 -0.58449219 28.22695312 -1.78710938 28.47265625 C-2.90537109 28.69824219 -4.02363281 28.92382812 -5.17578125 29.15625 C-6.20743408 29.36572266 -7.23908691 29.57519531 -8.30200195 29.79101562 C-10.9375 30.25 -10.9375 30.25 -13.9375 30.25 C-14.15664062 29.63511719 -14.37578125 29.02023438 -14.6015625 28.38671875 C-16.16679303 24.39728973 -17.20231252 21.80139061 -20.6875 19.1875 C-25.77748489 17.71923513 -29.95026264 17.27752214 -34.875 19.6875 C-36.82043306 21.08738726 -36.82043306 21.08738726 -37.9375 22.25 C-38.38612713 26.30405766 -38.38612713 26.30405766 -36.7512207 29.86035156 C-34.43242781 31.63697953 -32.52773613 32.02955038 -29.66796875 32.609375 C-28.62044434 32.83415527 -27.57291992 33.05893555 -26.49365234 33.29052734 C-25.38199707 33.52465332 -24.2703418 33.7587793 -23.125 34 C-9.96230352 36.98324415 3.31020374 40.20097649 11.0625 52.25 C11.70638672 53.21292969 11.70638672 53.21292969 12.36328125 54.1953125 C16.58750065 61.83084309 16.31387017 71.90004102 14.3671875 80.22265625 C10.8707419 89.72769954 5.01229131 96.53182336 -3.9375 101.25 C-6.89077871 102.47933227 -9.83779834 103.46376181 -12.9375 104.25 C-13.66324219 104.43433594 -14.38898438 104.61867188 -15.13671875 104.80859375 C-29.3558631 107.04954676 -44.46355818 105.88314394 -56.6875 97.91015625 C-63.30981304 93.02390097 -69.98646861 86.43829013 -71.29003906 77.95605469 C-71.54097024 75.72215521 -71.75879783 73.49074343 -71.9375 71.25 C-68.77182793 70.59922827 -65.60479923 69.9553016 -62.4375 69.3125 C-61.1071875 69.03889648 -61.1071875 69.03889648 -59.75 68.75976562 C-54.48858545 67.69587665 -49.2730105 66.84214194 -43.9375 66.25 C-43.71835938 66.85328125 -43.49921875 67.4565625 -43.2734375 68.078125 C-41.7378589 71.94828245 -40.3694595 74.80724151 -37.4375 77.8125 C-32.25416514 79.94136968 -27.45691477 80.13649818 -21.9375 79.25 C-18.4893732 77.39067097 -18.4893732 77.39067097 -16.9375 74.25 C-16.60199153 71.09627591 -16.60199153 71.09627591 -17.9375 68.25 C-21.27854263 65.87120978 -24.34422276 64.70631249 -28.32421875 63.8203125 C-29.34580078 63.58183594 -30.36738281 63.34335937 -31.41992188 63.09765625 C-33.53638047 62.62045352 -35.653559 62.14643133 -37.77148438 61.67578125 C-49.94259984 58.82186452 -59.7979752 54.39451466 -66.64453125 43.60546875 C-70.94249038 35.77565196 -71.02099351 26.64534181 -68.8125 18.125 C-65.85071993 9.29502018 -59.39821462 2.11997786 -51.1875 -2.1953125 C-35.10252915 -9.68166861 -15.36039642 -9.2924051 0 0 Z " fill="#000000" transform="translate(1456.9375,200.75)"/>
<path d="M0 0 C9.9 0 19.8 0 30 0 C30 10.23 30 20.46 30 31 C36.93 31 43.86 31 51 31 C51 40.57 51 50.14 51 60 C44.07 60 37.14 60 30 60 C30.02808876 66.03397707 30.0711332 72.06397489 30.15258789 78.09692383 C30.17576059 80.14827524 30.19016189 82.1997455 30.19555664 84.2512207 C30.20485143 87.2033895 30.24585364 90.15369086 30.29296875 93.10546875 C30.2890361 94.02023483 30.28510345 94.93500092 30.28105164 95.87748718 C30.37372596 99.93731645 30.73189636 102.49912421 32.66918945 106.1184082 C37.39399655 109.1476527 37.39399655 109.1476527 50 108 C50 117.24 50 126.48 50 136 C38.86007027 140.45597189 27.29832652 140.28911662 15.9765625 136.30859375 C7.25450517 132.47409348 3.09853308 127.43297353 -0.90625 118.8671875 C-2.58705816 114.46106898 -3.12518922 110.45125667 -3.11352539 105.75073242 C-3.11344986 104.73005173 -3.11337433 103.70937103 -3.11329651 102.65776062 C-3.10813522 101.5680043 -3.10297394 100.47824799 -3.09765625 99.35546875 C-3.0962413 98.2305452 -3.09482635 97.10562164 -3.09336853 95.9466095 C-3.08777931 92.36021241 -3.07522872 88.77387816 -3.0625 85.1875 C-3.05748361 82.75325611 -3.05292094 80.31901124 -3.04882812 77.88476562 C-3.03781339 71.92315294 -3.02055611 65.96158712 -3 60 C-8.94 60 -14.88 60 -21 60 C-21 50.43 -21 40.86 -21 31 C-17.04 30.34 -13.08 29.68 -9 29 C-3.98565669 27.6290756 -3.98565669 27.6290756 -2.75 24.5625 C-2.5025 23.716875 -2.255 22.87125 -2 22 C-1.67 21.01 -1.34 20.02 -1 19 C-0.85426942 17.52034074 -0.75336732 16.03596157 -0.68359375 14.55078125 C-0.64548584 13.78677002 -0.60737793 13.02275879 -0.56811523 12.2355957 C-0.50346069 10.78866333 -0.50346069 10.78866333 -0.4375 9.3125 C-0.293125 6.239375 -0.14875 3.16625 0 0 Z " fill="#000000" transform="translate(1144,166)"/>
<path d="M0 0 C6.71851526 5.16022845 9.75218185 10.97725596 10.875 19.375 C11.38506435 27.87220839 9.218931 32.93541867 3.625 39.3125 C0.62381835 42.51479176 -2.45233244 45.40747371 -6 48 C-6.66 48 -7.32 48 -8 48 C-2.94647258 53.96348734 2.41711741 59.53105379 8 65 C18.15369002 55.07661846 18.15369002 55.07661846 27.66796875 44.55078125 C29.05165118 42.93986651 30.41432405 41.41471359 32 40 C32.66 40 33.32 40 34 40 C36.26028807 60.69835391 36.26028807 60.69835391 31.10546875 67.64453125 C28.02426314 71.12047748 24.63637678 74.1178717 21 77 C22.4729254 80.43168483 24.38976744 82.59961609 27.0625 85.1875 C27.85914063 85.96867187 28.65578125 86.74984375 29.4765625 87.5546875 C30.30929687 88.36164063 31.14203125 89.16859375 32 90 C33.65048195 91.59938344 35.29651264 93.20337647 36.9375 94.8125 C37.66839844 95.52019531 38.39929688 96.22789062 39.15234375 96.95703125 C40.91208466 98.90279129 41.97106268 100.60273765 43 103 C20.77427984 104.91255144 20.77427984 104.91255144 14.95703125 100.55078125 C12.23776971 97.99298506 10.03394753 95.1322792 8 92 C7.0925 92.86625 6.185 93.7325 5.25 94.625 C-4.34544855 102.88611214 -14.61531204 105.85411641 -27 105 C-36.89872811 103.11979466 -44.25628786 98.31950057 -50 90 C-53.10384424 82.59614563 -53.31971989 73.88363351 -51.23046875 66.15234375 C-48.07643593 59.11985361 -42.59445982 54.14888337 -37 49 C-36.34 48.34 -35.68 47.68 -35 47 C-35.53109375 46.38253906 -36.0621875 45.76507813 -36.609375 45.12890625 C-43.27969657 37.13182364 -47.86493622 30.48051002 -47.37109375 19.765625 C-46.24391758 11.36519631 -42.94137203 5.91424338 -36.33203125 0.62890625 C-26.26229929 -6.40472562 -10.44726075 -6.5536322 0 0 Z M-27.8125 15.75 C-29.61548052 19.16617363 -29.56594055 21.16418072 -29 25 C-26.4567772 29.94652719 -23.60545744 33.83625098 -19 37 C-11.35386608 31.83369126 -11.35386608 31.83369126 -7 24 C-7 19.4642798 -7.48593199 17.60633663 -10.4375 14.125 C-16.60652588 9.00922244 -22.24814984 10.37752398 -27.8125 15.75 Z M-29.34375 64.23046875 C-32.32345089 67.41396994 -33.89722064 70.65841815 -34.08984375 75.046875 C-33.74015254 79.8170217 -32.39665966 82.70038776 -29 86 C-24.52673974 88.70875462 -20.09004219 88.66146349 -15 88 C-11.64973835 86.37794216 -11.64973835 86.37794216 -9 84 C-8.05125 83.2575 -7.1025 82.515 -6.125 81.75 C-5.42375 81.1725 -4.7225 80.595 -4 80 C-5.30688843 77.10455263 -6.68967692 75.07656883 -8.96875 72.87109375 C-9.53980469 72.31099609 -10.11085938 71.75089844 -10.69921875 71.17382812 C-11.29347656 70.60083984 -11.88773438 70.02785156 -12.5 69.4375 C-13.67934563 68.29269053 -14.85651652 67.14563543 -16.03125 65.99609375 C-16.55267578 65.49263428 -17.07410156 64.9891748 -17.61132812 64.47045898 C-19 63 -19 63 -21 60 C-25.06236184 60 -26.4162941 61.58211352 -29.34375 64.23046875 Z " fill="#000000" transform="translate(930,349)"/>
<path d="M0 0 C10.89 0 21.78 0 33 0 C33 50.82 33 101.64 33 154 C22.11 154 11.22 154 0 154 C0 103.18 0 52.36 0 0 Z " fill="#000000" transform="translate(1333,149)"/>
<path d="M0 0 C0 10.89 0 21.78 0 33 C-3.96 32.67 -7.92 32.34 -12 32 C-19.26385234 33.02438943 -23.90396925 34.90396925 -29.1875 40.1875 C-34.13455386 47.86396289 -34.46145278 55.76509677 -34.51171875 64.69140625 C-34.52966995 65.87725815 -34.54762115 67.06311005 -34.56611633 68.28489685 C-34.61996769 72.04406256 -34.65403499 75.80310311 -34.6875 79.5625 C-34.7206952 82.12306419 -34.75518687 84.68361193 -34.79101562 87.24414062 C-34.87810168 93.49610928 -34.93838876 99.74752165 -35 106 C-45.89 106 -56.78 106 -68 106 C-68 71.02 -68 36.04 -68 0 C-57.44 0 -46.88 0 -36 0 C-35.505 4.455 -35.505 4.455 -35 9 C-33.6078125 7.63875 -33.6078125 7.63875 -32.1875 6.25 C-24.43319438 -0.2815708 -9.69043108 -4.84521554 0 0 Z " fill="#000000" transform="translate(873,197)"/>
<path d="M0 0 C0 5.28 0 10.56 0 16 C-1.381875 15.938125 -2.76375 15.87625 -4.1875 15.8125 C-8.28129473 15.80605308 -10.73753435 16.34924666 -14 19 C-16.25585658 23.51171315 -15.61312379 28.97060926 -16 34 C-0.49 34 15.02 34 31 34 C31 58.09 31 82.18 31 107 C25.06 107 19.12 107 13 107 C13 88.19 13 69.38 13 50 C3.43 50 -6.14 50 -16 50 C-16 68.81 -16 87.62 -16 107 C-22.27 107 -28.54 107 -35 107 C-35 88.19 -35 69.38 -35 50 C-38.96 50 -42.92 50 -47 50 C-47 44.72 -47 39.44 -47 34 C-43.04 34 -39.08 34 -35 34 C-35.061875 32.06125 -35.12375 30.1225 -35.1875 28.125 C-35.14689067 18.77470287 -33.66343466 11.55309734 -27 4.6953125 C-19.52344641 -1.64223488 -9.30584764 -3.10194921 0 0 Z " fill="#000000" transform="translate(564,345)"/>
<path d="M0 0 C7.89514361 6.5765044 11.54964975 16.41530587 12.5625 26.375 C12.89176829 34.71646341 12.89176829 34.71646341 11.5625 37.375 C-5.5975 37.375 -22.7575 37.375 -40.4375 37.375 C-37.47410202 46.41149892 -37.47410202 46.41149892 -31.4375 51.375 C-30.84710937 51.72949219 -30.25671875 52.08398438 -29.6484375 52.44921875 C-24.246074 54.71133915 -17.49990727 53.97497302 -12 52.375 C-8.46588442 49.61666589 -6.5389009 46.28955655 -4.4375 42.375 C0.96045989 43.52558556 6.27237333 44.79921759 11.5625 46.375 C10.41725496 53.95226076 5.56536184 60.41719587 -0.421875 65.08984375 C-10.10278112 71.26235947 -21.53314433 72.03031116 -32.58984375 69.71484375 C-43.96213894 66.03041151 -50.97827792 58.76982338 -56.46875 48.43359375 C-60.7671982 38.26457973 -59.7313669 24.03331563 -55.7578125 13.98828125 C-50.91581138 4.40455714 -43.7416534 -2.01553544 -33.5625 -5.5 C-22.10416301 -8.44844727 -9.91851753 -6.66282094 0 0 Z M-35.3125 13.625 C-37.98543903 16.84698124 -37.98543903 16.84698124 -40.4375 23.375 C-29.2175 23.375 -17.9975 23.375 -6.4375 23.375 C-7.46490867 17.210548 -8.2488988 15.66101053 -12.4375 11.375 C-19.81392774 6.21150058 -28.7138096 8.46080751 -35.3125 13.625 Z " fill="#000000" transform="translate(1176.4375,383.625)"/>
<path d="M0 0 C6.78267383 6.12714914 10.22478165 13.12390827 12 22 C12 26.95 12 31.9 12 37 C-5.16 37.33 -22.32 37.66 -40 38 C-37.8002315 45.02149597 -37.8002315 45.02149597 -33.5 49.4375 C-32.9121875 49.91058594 -32.324375 50.38367188 -31.71875 50.87109375 C-26.79697759 54.10380336 -20.63767482 53.52339156 -15 53 C-9.64468986 50.56576812 -7.13731527 46.79824688 -4 42 C-2.06213915 42.47770523 -0.12472326 42.95721571 1.8125 43.4375 C2.89144531 43.70433594 3.97039063 43.97117187 5.08203125 44.24609375 C7.0740843 44.76077412 9.04811524 45.34937175 11 46 C10.68621201 52.11886587 7.88685745 56.45311016 4 61 C-4.83493392 68.65804779 -13.85778417 70.55691318 -25.34375 70.28125 C-36.22948253 69.44388596 -43.33096409 65.04707596 -50.75 57.25 C-58.23733839 48.3267337 -59.78073167 37.29851307 -59 26 C-57.45816906 15.03744055 -52.60942167 6.17792984 -43.890625 -0.75390625 C-30.4743122 -9.59647605 -13.08699627 -9.42646532 0 0 Z M-37.3125 15.4375 C-39.36711373 18.20831686 -39.36711373 18.20831686 -40 23 C-28.78 23 -17.56 23 -6 23 C-8.28983944 14.51771725 -8.28983944 14.51771725 -14 10 C-23.15564469 6.94811844 -30.7331017 8.50245855 -37.3125 15.4375 Z " fill="#000000" transform="translate(668,384)"/>
<path d="M0 0 C1.2361425 1.05149051 2.44618479 2.13461879 3.625 3.25 C4.45644531 4.00410156 4.45644531 4.00410156 5.3046875 4.7734375 C14.45115313 14.10192235 13.625 25.66619325 13.625 38.25 C-3.535 38.25 -20.695 38.25 -38.375 38.25 C-36.37876665 45.95864532 -36.37876665 45.95864532 -31.875 50.75 C-31.2871875 51.2140625 -30.699375 51.678125 -30.09375 52.15625 C-25.11515958 55.3244439 -19.03651327 54.76334965 -13.375 54.25 C-8.92007728 52.93879934 -6.26168331 50.46478329 -3.9375 46.5 C-3.421875 45.4275 -2.90625 44.355 -2.375 43.25 C3.31639902 44.34698167 8.37067937 45.79053077 13.625 48.25 C10.05193783 57.51894364 5.89735837 63.44189502 -2.93359375 68.20703125 C-12.52207217 72.30322923 -23.37677295 72.95076638 -33.3125 69.625 C-42.83855836 65.6050883 -50.13530279 58.93236718 -54.5234375 49.49609375 C-58.61355016 38.70795256 -58.36224204 26.6912069 -54.3125 15.9375 C-49.3355045 5.31896698 -42.26773623 -0.54315015 -31.375 -4.75 C-21.06085182 -7.31290955 -8.79906635 -6.28024965 0 0 Z M-35.6875 16.6875 C-37.74211373 19.45831686 -37.74211373 19.45831686 -38.375 24.25 C-27.155 24.25 -15.935 24.25 -4.375 24.25 C-5.47578582 17.64528506 -6.56960526 15.28391118 -11.875 11.4375 C-21.30252465 8.23887556 -28.82439201 9.4534132 -35.6875 16.6875 Z " fill="#000000" transform="translate(1094.375,382.75)"/>
<path d="M0 0 C5.83739776 3.90920755 10.15314553 8.14025483 12 15 C11.8515625 17.08984375 11.8515625 17.08984375 11 19 C8.890625 20.08203125 8.890625 20.08203125 6.25 20.8125 C4.95835937 21.19341797 4.95835937 21.19341797 3.640625 21.58203125 C0.78828581 22.03351097 -1.22627691 21.73334046 -4 21 C-4.3403125 19.576875 -4.3403125 19.576875 -4.6875 18.125 C-5.68994941 14.93244946 -5.68994941 14.93244946 -8.0625 13.625 C-12.12571754 12.76048563 -15.87881059 12.27098093 -20 13 C-23.2338734 14.98158726 -23.2338734 14.98158726 -25 18 C-25.41518518 20.67412158 -25.41518518 20.67412158 -24 23 C-19.37185179 25.78113494 -14.89410279 26.78738677 -9.6875 27.8125 C-2.16765701 29.45391161 4.54492609 31.4256768 9.38671875 37.8359375 C13.13441041 44.06894047 13.99347976 50.05083021 12.57421875 57.12109375 C10.53712116 63.53232726 6.53104403 67.79146877 0.8828125 71.32421875 C-7.61804905 75.40291495 -18.8085565 75.41365586 -27.875 73.0625 C-34.47187131 70.3856926 -41.13818662 64.7105877 -44.125 58.1875 C-45 55 -45 55 -45 51 C-39.72 49.68 -34.44 48.36 -29 47 C-28.01 49.31 -27.02 51.62 -26 54 C-22.66093761 57.62526774 -19.70144636 58.65582605 -14.9296875 59.04296875 C-11.05186656 58.95662051 -8.68977164 57.68977164 -6 55 C-5.49989476 52.04230823 -5.49989476 52.04230823 -6 49 C-9.95688977 44.77575282 -16.32546592 44.27693695 -21.73828125 43.0703125 C-29.64284117 41.16620298 -36.44263323 38.0113335 -41 31 C-43.67792553 26.31363032 -43.72276307 21.24193424 -43 16 C-40.66877014 8.61596495 -36.78005695 3.7082261 -30 0 C-20.40529704 -4.55488606 -9.69474224 -4.23351189 0 0 Z " fill="#000000" transform="translate(786,380)"/>
<path d="M0 0 C4.60166828 3.86958469 8.1497279 7.91141161 9.625 13.8125 C9.66625 14.6375 9.7075 15.4625 9.75 16.3125 C4.29873741 18.55141142 -0.38190493 19.78856294 -6.25 20.3125 C-6.86875 18.9203125 -6.86875 18.9203125 -7.5 17.5 C-9.25783729 14.29822494 -10.19529177 13.15399078 -13.25 11.3125 C-17.82820943 10.49810698 -21.92157969 10.45851552 -25.875 13 C-27.52819009 15.78036515 -27.90121427 17.13783042 -27.25 20.3125 C-24.55684958 22.74091659 -22.29172151 23.77215879 -18.765625 24.48828125 C-17.91226562 24.67712891 -17.05890625 24.86597656 -16.1796875 25.06054688 C-14.41053552 25.43320352 -12.63969743 25.797954 -10.8671875 26.15429688 C-2.56445698 28.01804795 4.03456647 32.05798688 8.75 39.3125 C11.22963898 45.01566965 11.56809989 50.31798429 9.6875 56.25 C6.97974808 62.70598258 2.67112246 67.77235054 -3.6875 70.8125 C-13.34104473 74.10883235 -24.67666609 73.52293189 -33.984375 69.49609375 C-41.06197947 65.79865555 -44.54127176 60.68359675 -47.25 53.3125 C-47.25 51.9925 -47.25 50.6725 -47.25 49.3125 C-41.97 47.9925 -36.69 46.6725 -31.25 45.3125 C-30.7859375 47.4471875 -30.7859375 47.4471875 -30.3125 49.625 C-29.36036741 52.49042274 -28.83164513 53.92589755 -26.29296875 55.61328125 C-21.41852281 57.36542451 -17.31241 57.70218118 -12.25 56.3125 C-9.74901018 55.29259206 -9.74901018 55.29259206 -8.25 53.3125 C-7.58333333 50.3125 -7.58333333 50.3125 -8.25 47.3125 C-12.2315608 43.09547055 -18.56130259 42.59259424 -23.98828125 41.3828125 C-31.89284117 39.47870298 -38.69263323 36.3238335 -43.25 29.3125 C-45.96762934 23.45384254 -46.38251824 17.27292306 -44.59765625 11.03125 C-41.38444974 3.86014534 -36.109404 -0.16537494 -28.9375 -3.0625 C-18.72124776 -6.39813427 -9.45371248 -4.9086584 0 0 Z " fill="#000000" transform="translate(1244.25,381.6875)"/>
<path d="M0 0 C1.13566406 -0.00257813 2.27132813 -0.00515625 3.44140625 -0.0078125 C6.4375 0.125 6.4375 0.125 9.4375 1.125 C9.4375 6.405 9.4375 11.685 9.4375 17.125 C8.055625 17.063125 6.67375 17.00125 5.25 16.9375 C1.14585751 16.94395305 -1.33916301 17.3900474 -4.5625 20.125 C-6.55862872 23.33025329 -6.92073545 26.14029629 -7.1875 29.875 C-7.31125 31.6075 -7.435 33.34 -7.5625 35.125 C-1.9525 35.125 3.6575 35.125 9.4375 35.125 C9.4375 40.405 9.4375 45.685 9.4375 51.125 C3.8275 51.125 -1.7825 51.125 -7.5625 51.125 C-7.5625 69.935 -7.5625 88.745 -7.5625 108.125 C-13.5025 108.125 -19.4425 108.125 -25.5625 108.125 C-25.5625 89.315 -25.5625 70.505 -25.5625 51.125 C-29.8525 51.125 -34.1425 51.125 -38.5625 51.125 C-38.5625 45.845 -38.5625 40.565 -38.5625 35.125 C-34.2725 35.125 -29.9825 35.125 -25.5625 35.125 C-25.60890625 34.07441406 -25.6553125 33.02382813 -25.703125 31.94140625 C-26.00667839 22.14013421 -25.14239059 15.68000264 -19.75 7.3125 C-13.99078876 1.55328876 -7.94891476 -0.01808627 0 0 Z " fill="#000000" transform="translate(1022.5625,343.875)"/>
<path d="M0 0 C5.28 0 10.56 0 16 0 C16 6.93 16 13.86 16 21 C20.95 21 25.9 21 31 21 C31 26.61 31 32.22 31 38 C26.05 38 21.1 38 16 38 C16.11840796 42.91145542 16.24266723 47.8227151 16.37231445 52.73388672 C16.41558489 54.40409334 16.45726549 56.07434194 16.49731445 57.74462891 C16.55520851 60.14758955 16.6188474 62.55034041 16.68359375 64.953125 C16.70030624 65.69806213 16.71701874 66.44299927 16.73423767 67.21051025 C16.83061695 70.59509934 16.96070174 73.7600524 18 77 C19.60397277 77.16852247 21.2081869 77.33474886 22.8125 77.5 C23.70582031 77.5928125 24.59914063 77.685625 25.51953125 77.78125 C28.08305099 78.04392401 28.08305099 78.04392401 31 78 C31 83.28 31 88.56 31 94 C22.79651166 95.64069767 14.50109925 96.2887834 7 92 C1.99708689 87.77531782 -1.04413912 83.49363788 -2 77 C-2.13025213 73.99262938 -2.11643354 70.9901661 -2.09765625 67.98046875 C-2.0962413 67.12189774 -2.09482635 66.26332672 -2.09336853 65.3787384 C-2.08779057 62.64828951 -2.07524214 59.91792393 -2.0625 57.1875 C-2.05748215 55.3313814 -2.05291974 53.4752615 -2.04882812 51.61914062 C-2.03782836 47.0793952 -2.02057893 42.5397117 -2 38 C-6.29 38 -10.58 38 -15 38 C-15 32.39 -15 26.78 -15 21 C-12.89625 20.87625 -12.89625 20.87625 -10.75 20.75 C-7.45545443 20.38739278 -6.2148156 20.1611117 -3.5 18.125 C-0.84113687 14.35827723 -0.74896176 10.80644821 -0.4375 6.3125 C-0.293125 4.229375 -0.14875 2.14625 0 0 Z " fill="#000000" transform="translate(1277,358)"/>
<path d="M0 0 C5.28 0 10.56 0 16 0 C16 6.93 16 13.86 16 21 C20.95 21 25.9 21 31 21 C31 26.61 31 32.22 31 38 C26.05 38 21.1 38 16 38 C16.12010994 42.75073154 16.24285695 47.5012441 16.37231445 52.25170898 C16.41553083 53.86657711 16.45721489 55.48148702 16.49731445 57.09643555 C16.55534048 59.42249117 16.61894029 61.74833904 16.68359375 64.07421875 C16.70030624 64.79212082 16.71701874 65.51002289 16.73423767 66.24967957 C16.84236012 69.93771676 17.13964048 73.4085348 18 77 C19.60397277 77.16852247 21.2081869 77.33474886 22.8125 77.5 C23.70582031 77.5928125 24.59914063 77.685625 25.51953125 77.78125 C28.08305099 78.04392401 28.08305099 78.04392401 31 78 C31 83.28 31 88.56 31 94 C23.01642192 95.59671562 14.19793365 96.5404687 7 92 C1.10198416 86.92957136 -1.55613939 81.59089886 -2.17312622 73.81929016 C-2.22927278 71.51221324 -2.22546743 69.2137932 -2.1953125 66.90625 C-2.1924826 66.07411987 -2.18965271 65.24198975 -2.18673706 64.38464355 C-2.17564286 61.75627569 -2.15055925 59.1282629 -2.125 56.5 C-2.11495626 54.70573413 -2.10583286 52.91146285 -2.09765625 51.1171875 C-2.07573893 46.74465721 -2.0412849 42.37238857 -2 38 C-6.29 38 -10.58 38 -15 38 C-15 32.39 -15 26.78 -15 21 C-12.89625 20.87625 -12.89625 20.87625 -10.75 20.75 C-7.40866828 20.38749703 -6.22530323 20.17461 -3.5 18.0625 C-0.77505475 14.31570028 -0.73105724 11.48804232 -0.4375 6.875 C-0.293125 4.60625 -0.14875 2.3375 0 0 Z " fill="#000000" transform="translate(701,358)"/>
<path d="M0 0 C5.28 0 10.56 0 16 0 C16 6.93 16 13.86 16 21 C20.95 21 25.9 21 31 21 C31 26.61 31 32.22 31 38 C26.05 38 21.1 38 16 38 C16.09713145 42.60863188 16.19998007 47.21640518 16.31738281 51.82446289 C16.35557409 53.39079081 16.39044394 54.95720349 16.421875 56.52368164 C16.46774071 58.780418 16.52569769 61.03657583 16.5859375 63.29296875 C16.59748871 63.98899704 16.60903992 64.68502533 16.62094116 65.40214539 C16.73931217 69.33583658 17.17977787 72.48817171 19 76 C23.02966439 78.8758716 27.24428526 78.13987396 32 78 C32 82.95 32 87.9 32 93 C24.2923148 95.5692284 16.53362987 96.48040209 8.85546875 93.1875 C4.34793064 90.30267561 0.68843145 86.06529434 -1 81 C-1.08610514 79.57281363 -1.11771828 78.14193352 -1.11352539 76.7121582 C-1.11344986 75.85149246 -1.11337433 74.99082672 -1.11329651 74.1040802 C-1.10813522 73.17899155 -1.10297394 72.25390289 -1.09765625 71.30078125 C-1.0962413 70.35059616 -1.09482635 69.40041107 -1.09336853 68.4214325 C-1.08776875 65.38508971 -1.07521632 62.34882052 -1.0625 59.3125 C-1.05748497 57.25455836 -1.05292207 55.19661556 -1.04882812 53.13867188 C-1.0377994 48.09241954 -1.02053493 43.04622225 -1 38 C-5.62 38 -10.24 38 -15 38 C-15 32.39 -15 26.78 -15 21 C-12.89625 20.8453125 -12.89625 20.8453125 -10.75 20.6875 C-7.03941591 20.27326813 -4.62603063 19.84486652 -2 17 C-0.84429296 13.53287889 -0.67164707 10.4585044 -0.4375 6.8125 C-0.293125 4.564375 -0.14875 2.31625 0 0 Z " fill="#000000" transform="translate(821,358)"/>
<path d="M0 0 C3.05357079 1.61320721 5.23833566 3.03060902 7.375 5.75 C8.34165091 9.22994329 8.68551123 12.463848 8 16 C6.2524257 19.02089981 4.16782234 21.41608883 1 23 C-2.79415519 23.53118173 -6.46331178 23.85089348 -9.890625 21.953125 C-12.70085213 19.63400553 -14.75917792 17.72015775 -15.2734375 14.046875 C-15.46154273 9.79280282 -15.43570087 6.90017646 -12.6875 3.5 C-8.63123924 -0.27326583 -5.4110751 -0.45856569 0 0 Z " fill="#000000" transform="translate(590,343)"/>
</svg>
